<svg height="400" viewBox="0 0 64 64" width="400" xmlns="http://www.w3.org/2000/svg"><g id="people-virus-spreading-corona-covid19"><path d="m59 41h-12a2.006 2.006 0 0 0 -2 2v7h4v11h8v-11h4v-7a2.006 2.006 0 0 0 -2-2z" fill="#9bc9ff"/><path d="m43 26h-12a2.006 2.006 0 0 0 -2 2v7h4v11h8v-11h4v-7a2.006 2.006 0 0 0 -2-2z" fill="#9bc9ff"/><path d="m59 10h-12a2.006 2.006 0 0 0 -2 2v7h4v11h8v-11h4v-7a2.006 2.006 0 0 0 -2-2z" fill="#9bc9ff"/><path d="m34.414 53.586a2 2 0 1 0 .586 1.414 1.994 1.994 0 0 0 -.586-1.414z" fill="#9bc9ff"/><path d="m35 9a2 2 0 1 0 -.586 1.414 1.994 1.994 0 0 0 .586-1.414z" fill="#9bc9ff"/><g fill="#1e81ce"><path d="m17 25h-3.38a4 4 0 1 0 -5.24 0h-3.38a3.009 3.009 0 0 0 -3 3v7a1 1 0 0 0 1 1h3v10a1 1 0 0 0 1 1h8a1 1 0 0 0 1-1v-10h3a1 1 0 0 0 1-1v-7a3.009 3.009 0 0 0 -3-3zm-6-5a2 2 0 1 1 -2 2 2.006 2.006 0 0 1 2-2zm7 14h-2v-4a1 1 0 0 0 -2 0v15h-2v-8a1 1 0 0 0 -2 0v8h-2v-15a1 1 0 0 0 -2 0v4h-2v-6a1 1 0 0 1 1-1h12a1 1 0 0 1 1 1z"/><path d="m43 25h-3.38a4 4 0 1 0 -5.24 0h-3.38a3.009 3.009 0 0 0 -3 3v7a1 1 0 0 0 1 1h3v10a1 1 0 0 0 1 1h8a1 1 0 0 0 1-1v-10h3a1 1 0 0 0 1-1v-7a3.009 3.009 0 0 0 -3-3zm-6-5a2 2 0 1 1 -2 2 2.006 2.006 0 0 1 2-2zm7 14h-2v-4a1 1 0 0 0 -2 0v15h-2v-8a1 1 0 0 0 -2 0v8h-2v-15a1 1 0 0 0 -2 0v4h-2v-6a1 1 0 0 1 1-1h12a1 1 0 0 1 1 1z"/><path d="m59 9h-3.38a4 4 0 1 0 -5.24 0h-3.38a3.009 3.009 0 0 0 -3 3v7a1 1 0 0 0 1 1h3v10a1 1 0 0 0 1 1h8a1 1 0 0 0 1-1v-10h3a1 1 0 0 0 1-1v-7a3.009 3.009 0 0 0 -3-3zm-6-5a2 2 0 1 1 -2 2 2.006 2.006 0 0 1 2-2zm7 14h-2v-4a1 1 0 0 0 -2 0v15h-2v-8a1 1 0 0 0 -2 0v8h-2v-15a1 1 0 0 0 -2 0v4h-2v-6a1 1 0 0 1 1-1h12a1 1 0 0 1 1 1z"/><path d="m59 40h-3.38a4 4 0 1 0 -5.24 0h-3.38a3.009 3.009 0 0 0 -3 3v7a1 1 0 0 0 1 1h3v10a1 1 0 0 0 1 1h8a1 1 0 0 0 1-1v-10h3a1 1 0 0 0 1-1v-7a3.009 3.009 0 0 0 -3-3zm-6-5a2 2 0 1 1 -2 2 2.006 2.006 0 0 1 2-2zm7 14h-2v-4a1 1 0 0 0 -2 0v15h-2v-8a1 1 0 0 0 -2 0v8h-2v-15a1 1 0 0 0 -2 0v4h-2v-6a1 1 0 0 1 1-1h12a1 1 0 0 1 1 1z"/><path d="m17 21h2v2h-2z"/><path d="m20 19h2v2h-2z"/><path d="m20 23h2v2h-2z"/><path d="m23 17h2v2h-2z"/><path d="m23 21h2v2h-2z"/><path d="m23 25h2v2h-2z"/><path d="m37 54h-1.184a2.746 2.746 0 0 0 -.117-.285l.836-.837a1 1 0 1 0 -1.414-1.414l-.836.837a2.746 2.746 0 0 0 -.285-.117v-1.184a1 1 0 0 0 -2 0v1.184a2.746 2.746 0 0 0 -.285.117l-.837-.837a1 1 0 0 0 -1.414 1.414l.837.837a2.746 2.746 0 0 0 -.117.285h-1.184a1 1 0 0 0 0 2h1.184a2.746 2.746 0 0 0 .117.285l-.837.837a1 1 0 1 0 1.414 1.414l.837-.837a2.746 2.746 0 0 0 .285.117v1.184a1 1 0 0 0 2 0v-1.184a2.746 2.746 0 0 0 .285-.117l.836.837a1 1 0 1 0 1.414-1.414l-.836-.837a2.746 2.746 0 0 0 .117-.285h1.184a1 1 0 0 0 0-2zm-5 1a1 1 0 1 1 1 1 1 1 0 0 1 -1-1z"/><path d="m29 10h1.184a2.746 2.746 0 0 0 .117.285l-.837.837a1 1 0 1 0 1.414 1.414l.837-.837a2.746 2.746 0 0 0 .285.117v1.184a1 1 0 0 0 2 0v-1.184a2.746 2.746 0 0 0 .285-.117l.836.837a1 1 0 1 0 1.414-1.414l-.836-.837a2.746 2.746 0 0 0 .117-.285h1.184a1 1 0 0 0 0-2h-1.184a2.746 2.746 0 0 0 -.117-.285l.836-.837a1 1 0 1 0 -1.414-1.414l-.836.837a2.746 2.746 0 0 0 -.285-.117v-1.184a1 1 0 0 0 -2 0v1.184a2.746 2.746 0 0 0 -.285.117l-.837-.837a1 1 0 0 0 -1.414 1.414l.837.837a2.746 2.746 0 0 0 -.117.285h-1.184a1 1 0 0 0 0 2zm5-1a1 1 0 1 1 -1-1 1 1 0 0 1 1 1z"/></g></g></svg>