<svg width="194" height="213" viewBox="0 0 194 213" fill="none" xmlns="http://www.w3.org/2000/svg">
<circle cx="2.5" cy="2.5" r="2.5" fill="#DDDDDD"/>
<circle cx="2.5" cy="15.5" r="2.5" fill="#DDDDDD"/>
<circle cx="2.5" cy="28.5" r="2.5" fill="#DDDDDD"/>
<circle cx="2.5" cy="41.5" r="2.5" fill="#DDDDDD"/>
<circle cx="2.5" cy="54.5" r="2.5" fill="#DDDDDD"/>
<circle cx="2.5" cy="67.5" r="2.5" fill="#DDDDDD"/>
<circle cx="2.5" cy="80.5" r="2.5" fill="#DDDDDD"/>
<circle cx="2.5" cy="93.5" r="2.5" fill="#DDDDDD"/>
<circle cx="2.5" cy="106.5" r="2.5" fill="#DDDDDD"/>
<circle cx="2.5" cy="119.5" r="2.5" fill="#DDDDDD"/>
<circle cx="2.5" cy="132.5" r="2.5" fill="#DDDDDD"/>
<circle cx="2.5" cy="145.5" r="2.5" fill="#DDDDDD"/>
<circle cx="2.5" cy="158.5" r="2.5" fill="#DDDDDD"/>
<circle cx="2.5" cy="171.5" r="2.5" fill="#DDDDDD"/>
<circle cx="2.5" cy="184.5" r="2.5" fill="#DDDDDD"/>
<circle cx="2.5" cy="197.5" r="2.5" fill="#DDDDDD"/>
<circle cx="2.5" cy="210.5" r="2.5" fill="#DDDDDD"/>
<circle cx="11.5" cy="2.5" r="2.5" fill="#DDDDDD"/>
<circle cx="11.5" cy="15.5" r="2.5" fill="#DDDDDD"/>
<circle cx="11.5" cy="28.5" r="2.5" fill="#DDDDDD"/>
<circle cx="11.5" cy="41.5" r="2.5" fill="#DDDDDD"/>
<circle cx="11.5" cy="54.5" r="2.5" fill="#DDDDDD"/>
<circle cx="11.5" cy="67.5" r="2.5" fill="#DDDDDD"/>
<circle cx="11.5" cy="80.5" r="2.5" fill="#DDDDDD"/>
<circle cx="11.5" cy="93.5" r="2.5" fill="#DDDDDD"/>
<circle cx="11.5" cy="106.5" r="2.5" fill="#DDDDDD"/>
<circle cx="11.5" cy="119.5" r="2.5" fill="#DDDDDD"/>
<circle cx="11.5" cy="132.5" r="2.5" fill="#DDDDDD"/>
<circle cx="11.5" cy="145.5" r="2.5" fill="#DDDDDD"/>
<circle cx="11.5" cy="158.5" r="2.5" fill="#DDDDDD"/>
<circle cx="11.5" cy="171.5" r="2.5" fill="#DDDDDD"/>
<circle cx="11.5" cy="184.5" r="2.5" fill="#DDDDDD"/>
<circle cx="11.5" cy="197.5" r="2.5" fill="#DDDDDD"/>
<circle cx="11.5" cy="210.5" r="2.5" fill="#DDDDDD"/>
<circle cx="20.5" cy="2.5" r="2.5" fill="#DDDDDD"/>
<circle cx="20.5" cy="15.5" r="2.5" fill="#DDDDDD"/>
<circle cx="20.5" cy="28.5" r="2.5" fill="#DDDDDD"/>
<circle cx="20.5" cy="41.5" r="2.5" fill="#DDDDDD"/>
<circle cx="20.5" cy="54.5" r="2.5" fill="#DDDDDD"/>
<circle cx="20.5" cy="67.5" r="2.5" fill="#DDDDDD"/>
<circle cx="20.5" cy="80.5" r="2.5" fill="#DDDDDD"/>
<circle cx="20.5" cy="93.5" r="2.5" fill="#DDDDDD"/>
<circle cx="20.5" cy="106.5" r="2.5" fill="#DDDDDD"/>
<circle cx="20.5" cy="119.5" r="2.5" fill="#DDDDDD"/>
<circle cx="20.5" cy="132.5" r="2.5" fill="#DDDDDD"/>
<circle cx="20.5" cy="145.5" r="2.5" fill="#DDDDDD"/>
<circle cx="20.5" cy="158.5" r="2.5" fill="#DDDDDD"/>
<circle cx="20.5" cy="171.5" r="2.5" fill="#DDDDDD"/>
<circle cx="20.5" cy="184.5" r="2.5" fill="#DDDDDD"/>
<circle cx="20.5" cy="197.5" r="2.5" fill="#DDDDDD"/>
<circle cx="20.5" cy="210.5" r="2.5" fill="#DDDDDD"/>
<circle cx="29.5" cy="2.5" r="2.5" fill="#DDDDDD"/>
<circle cx="29.5" cy="15.5" r="2.5" fill="#DDDDDD"/>
<circle cx="29.5" cy="28.5" r="2.5" fill="#DDDDDD"/>
<circle cx="29.5" cy="41.5" r="2.5" fill="#DDDDDD"/>
<circle cx="29.5" cy="54.5" r="2.5" fill="#DDDDDD"/>
<circle cx="29.5" cy="67.5" r="2.5" fill="#DDDDDD"/>
<circle cx="29.5" cy="80.5" r="2.5" fill="#DDDDDD"/>
<circle cx="29.5" cy="93.5" r="2.5" fill="#DDDDDD"/>
<circle cx="29.5" cy="106.5" r="2.5" fill="#DDDDDD"/>
<circle cx="29.5" cy="119.5" r="2.5" fill="#DDDDDD"/>
<circle cx="29.5" cy="132.5" r="2.5" fill="#DDDDDD"/>
<circle cx="29.5" cy="145.5" r="2.5" fill="#DDDDDD"/>
<circle cx="29.5" cy="158.5" r="2.5" fill="#DDDDDD"/>
<circle cx="29.5" cy="171.5" r="2.5" fill="#DDDDDD"/>
<circle cx="29.5" cy="184.5" r="2.5" fill="#DDDDDD"/>
<circle cx="29.5" cy="197.5" r="2.5" fill="#DDDDDD"/>
<circle cx="29.5" cy="210.5" r="2.5" fill="#DDDDDD"/>
<circle cx="38.5" cy="2.5" r="2.5" fill="#DDDDDD"/>
<circle cx="38.5" cy="15.5" r="2.5" fill="#DDDDDD"/>
<circle cx="38.5" cy="28.5" r="2.5" fill="#DDDDDD"/>
<circle cx="38.5" cy="41.5" r="2.5" fill="#DDDDDD"/>
<circle cx="38.5" cy="54.5" r="2.5" fill="#DDDDDD"/>
<circle cx="38.5" cy="67.5" r="2.5" fill="#DDDDDD"/>
<circle cx="38.5" cy="80.5" r="2.5" fill="#DDDDDD"/>
<circle cx="38.5" cy="93.5" r="2.5" fill="#DDDDDD"/>
<circle cx="38.5" cy="106.5" r="2.5" fill="#DDDDDD"/>
<circle cx="38.5" cy="119.5" r="2.5" fill="#DDDDDD"/>
<circle cx="38.5" cy="132.5" r="2.5" fill="#DDDDDD"/>
<circle cx="38.5" cy="145.5" r="2.5" fill="#DDDDDD"/>
<circle cx="38.5" cy="158.5" r="2.5" fill="#DDDDDD"/>
<circle cx="38.5" cy="171.5" r="2.5" fill="#DDDDDD"/>
<circle cx="38.5" cy="184.5" r="2.5" fill="#DDDDDD"/>
<circle cx="38.5" cy="197.5" r="2.5" fill="#DDDDDD"/>
<circle cx="38.5" cy="210.5" r="2.5" fill="#DDDDDD"/>
<circle cx="47.5" cy="2.5" r="2.5" fill="#DDDDDD"/>
<circle cx="47.5" cy="15.5" r="2.5" fill="#DDDDDD"/>
<circle cx="47.5" cy="28.5" r="2.5" fill="#DDDDDD"/>
<circle cx="47.5" cy="41.5" r="2.5" fill="#DDDDDD"/>
<circle cx="47.5" cy="54.5" r="2.5" fill="#DDDDDD"/>
<circle cx="47.5" cy="67.5" r="2.5" fill="#DDDDDD"/>
<circle cx="47.5" cy="80.5" r="2.5" fill="#DDDDDD"/>
<circle cx="47.5" cy="93.5" r="2.5" fill="#DDDDDD"/>
<circle cx="47.5" cy="106.5" r="2.5" fill="#DDDDDD"/>
<circle cx="47.5" cy="119.5" r="2.5" fill="#DDDDDD"/>
<circle cx="47.5" cy="132.5" r="2.5" fill="#DDDDDD"/>
<circle cx="47.5" cy="145.5" r="2.5" fill="#DDDDDD"/>
<circle cx="47.5" cy="158.5" r="2.5" fill="#DDDDDD"/>
<circle cx="47.5" cy="171.5" r="2.5" fill="#DDDDDD"/>
<circle cx="47.5" cy="184.5" r="2.5" fill="#DDDDDD"/>
<circle cx="47.5" cy="197.5" r="2.5" fill="#DDDDDD"/>
<circle cx="47.5" cy="210.5" r="2.5" fill="#DDDDDD"/>
<circle cx="56.5" cy="2.5" r="2.5" fill="#DDDDDD"/>
<circle cx="56.5" cy="15.5" r="2.5" fill="#DDDDDD"/>
<circle cx="56.5" cy="28.5" r="2.5" fill="#DDDDDD"/>
<circle cx="56.5" cy="41.5" r="2.5" fill="#DDDDDD"/>
<circle cx="56.5" cy="54.5" r="2.5" fill="#DDDDDD"/>
<circle cx="56.5" cy="67.5" r="2.5" fill="#DDDDDD"/>
<circle cx="56.5" cy="80.5" r="2.5" fill="#DDDDDD"/>
<circle cx="56.5" cy="93.5" r="2.5" fill="#DDDDDD"/>
<circle cx="56.5" cy="106.5" r="2.5" fill="#DDDDDD"/>
<circle cx="56.5" cy="119.5" r="2.5" fill="#DDDDDD"/>
<circle cx="56.5" cy="132.5" r="2.5" fill="#DDDDDD"/>
<circle cx="56.5" cy="145.5" r="2.5" fill="#DDDDDD"/>
<circle cx="56.5" cy="158.5" r="2.5" fill="#DDDDDD"/>
<circle cx="56.5" cy="171.5" r="2.5" fill="#DDDDDD"/>
<circle cx="56.5" cy="184.5" r="2.5" fill="#DDDDDD"/>
<circle cx="56.5" cy="197.5" r="2.5" fill="#DDDDDD"/>
<circle cx="56.5" cy="210.5" r="2.5" fill="#DDDDDD"/>
<circle cx="65.5" cy="2.5" r="2.5" fill="#DDDDDD"/>
<circle cx="65.5" cy="15.5" r="2.5" fill="#DDDDDD"/>
<circle cx="65.5" cy="28.5" r="2.5" fill="#DDDDDD"/>
<circle cx="65.5" cy="41.5" r="2.5" fill="#DDDDDD"/>
<circle cx="65.5" cy="54.5" r="2.5" fill="#DDDDDD"/>
<circle cx="65.5" cy="67.5" r="2.5" fill="#DDDDDD"/>
<circle cx="65.5" cy="80.5" r="2.5" fill="#DDDDDD"/>
<circle cx="65.5" cy="93.5" r="2.5" fill="#DDDDDD"/>
<circle cx="65.5" cy="106.5" r="2.5" fill="#DDDDDD"/>
<circle cx="65.5" cy="119.5" r="2.5" fill="#DDDDDD"/>
<circle cx="65.5" cy="132.5" r="2.5" fill="#DDDDDD"/>
<circle cx="65.5" cy="145.5" r="2.5" fill="#DDDDDD"/>
<circle cx="65.5" cy="158.5" r="2.5" fill="#DDDDDD"/>
<circle cx="65.5" cy="171.5" r="2.5" fill="#DDDDDD"/>
<circle cx="65.5" cy="184.5" r="2.5" fill="#DDDDDD"/>
<circle cx="65.5" cy="197.5" r="2.5" fill="#DDDDDD"/>
<circle cx="65.5" cy="210.5" r="2.5" fill="#DDDDDD"/>
<circle cx="74.5" cy="2.5" r="2.5" fill="#DDDDDD"/>
<circle cx="74.5" cy="15.5" r="2.5" fill="#DDDDDD"/>
<circle cx="74.5" cy="28.5" r="2.5" fill="#DDDDDD"/>
<circle cx="74.5" cy="41.5" r="2.5" fill="#DDDDDD"/>
<circle cx="74.5" cy="54.5" r="2.5" fill="#DDDDDD"/>
<circle cx="74.5" cy="67.5" r="2.5" fill="#DDDDDD"/>
<circle cx="74.5" cy="80.5" r="2.5" fill="#DDDDDD"/>
<circle cx="74.5" cy="93.5" r="2.5" fill="#DDDDDD"/>
<circle cx="74.5" cy="106.5" r="2.5" fill="#DDDDDD"/>
<circle cx="74.5" cy="119.5" r="2.5" fill="#DDDDDD"/>
<circle cx="74.5" cy="132.5" r="2.5" fill="#DDDDDD"/>
<circle cx="74.5" cy="145.5" r="2.5" fill="#DDDDDD"/>
<circle cx="74.5" cy="158.5" r="2.5" fill="#DDDDDD"/>
<circle cx="74.5" cy="171.5" r="2.5" fill="#DDDDDD"/>
<circle cx="74.5" cy="184.5" r="2.5" fill="#DDDDDD"/>
<circle cx="74.5" cy="197.5" r="2.5" fill="#DDDDDD"/>
<circle cx="74.5" cy="210.5" r="2.5" fill="#DDDDDD"/>
<circle cx="83.5" cy="2.5" r="2.5" fill="#DDDDDD"/>
<circle cx="83.5" cy="15.5" r="2.5" fill="#DDDDDD"/>
<circle cx="83.5" cy="28.5" r="2.5" fill="#DDDDDD"/>
<circle cx="83.5" cy="41.5" r="2.5" fill="#DDDDDD"/>
<circle cx="83.5" cy="54.5" r="2.5" fill="#DDDDDD"/>
<circle cx="83.5" cy="67.5" r="2.5" fill="#DDDDDD"/>
<circle cx="83.5" cy="80.5" r="2.5" fill="#DDDDDD"/>
<circle cx="83.5" cy="93.5" r="2.5" fill="#DDDDDD"/>
<circle cx="83.5" cy="106.5" r="2.5" fill="#DDDDDD"/>
<circle cx="83.5" cy="119.5" r="2.5" fill="#DDDDDD"/>
<circle cx="83.5" cy="132.5" r="2.5" fill="#DDDDDD"/>
<circle cx="83.5" cy="145.5" r="2.5" fill="#DDDDDD"/>
<circle cx="83.5" cy="158.5" r="2.5" fill="#DDDDDD"/>
<circle cx="83.5" cy="171.5" r="2.5" fill="#DDDDDD"/>
<circle cx="83.5" cy="184.5" r="2.5" fill="#DDDDDD"/>
<circle cx="83.5" cy="197.5" r="2.5" fill="#DDDDDD"/>
<circle cx="83.5" cy="210.5" r="2.5" fill="#DDDDDD"/>
<circle cx="92.5" cy="2.5" r="2.5" fill="#DDDDDD"/>
<circle cx="92.5" cy="15.5" r="2.5" fill="#DDDDDD"/>
<circle cx="92.5" cy="28.5" r="2.5" fill="#DDDDDD"/>
<circle cx="92.5" cy="41.5" r="2.5" fill="#DDDDDD"/>
<circle cx="92.5" cy="54.5" r="2.5" fill="#DDDDDD"/>
<circle cx="92.5" cy="67.5" r="2.5" fill="#DDDDDD"/>
<circle cx="92.5" cy="80.5" r="2.5" fill="#DDDDDD"/>
<circle cx="92.5" cy="93.5" r="2.5" fill="#DDDDDD"/>
<circle cx="92.5" cy="106.5" r="2.5" fill="#DDDDDD"/>
<circle cx="92.5" cy="119.5" r="2.5" fill="#DDDDDD"/>
<circle cx="92.5" cy="132.5" r="2.5" fill="#DDDDDD"/>
<circle cx="92.5" cy="145.5" r="2.5" fill="#DDDDDD"/>
<circle cx="92.5" cy="158.5" r="2.5" fill="#DDDDDD"/>
<circle cx="92.5" cy="171.5" r="2.5" fill="#DDDDDD"/>
<circle cx="92.5" cy="184.5" r="2.5" fill="#DDDDDD"/>
<circle cx="92.5" cy="197.5" r="2.5" fill="#DDDDDD"/>
<circle cx="92.5" cy="210.5" r="2.5" fill="#DDDDDD"/>
<circle cx="101.5" cy="2.5" r="2.5" fill="#DDDDDD"/>
<circle cx="101.5" cy="15.5" r="2.5" fill="#DDDDDD"/>
<circle cx="101.5" cy="28.5" r="2.5" fill="#DDDDDD"/>
<circle cx="101.5" cy="41.5" r="2.5" fill="#DDDDDD"/>
<circle cx="101.5" cy="54.5" r="2.5" fill="#DDDDDD"/>
<circle cx="101.5" cy="67.5" r="2.5" fill="#DDDDDD"/>
<circle cx="101.5" cy="80.5" r="2.5" fill="#DDDDDD"/>
<circle cx="101.5" cy="93.5" r="2.5" fill="#DDDDDD"/>
<circle cx="101.5" cy="106.5" r="2.5" fill="#DDDDDD"/>
<circle cx="101.5" cy="119.5" r="2.5" fill="#DDDDDD"/>
<circle cx="101.5" cy="132.5" r="2.5" fill="#DDDDDD"/>
<circle cx="101.5" cy="145.5" r="2.5" fill="#DDDDDD"/>
<circle cx="101.5" cy="158.5" r="2.5" fill="#DDDDDD"/>
<circle cx="101.5" cy="171.5" r="2.5" fill="#DDDDDD"/>
<circle cx="101.5" cy="184.5" r="2.5" fill="#DDDDDD"/>
<circle cx="101.5" cy="197.5" r="2.5" fill="#DDDDDD"/>
<circle cx="101.5" cy="210.5" r="2.5" fill="#DDDDDD"/>
<circle cx="110.5" cy="2.5" r="2.5" fill="#DDDDDD"/>
<circle cx="110.5" cy="15.5" r="2.5" fill="#DDDDDD"/>
<circle cx="110.5" cy="28.5" r="2.5" fill="#DDDDDD"/>
<circle cx="110.5" cy="41.5" r="2.5" fill="#DDDDDD"/>
<circle cx="110.5" cy="54.5" r="2.5" fill="#DDDDDD"/>
<circle cx="110.5" cy="67.5" r="2.5" fill="#DDDDDD"/>
<circle cx="110.5" cy="80.5" r="2.5" fill="#DDDDDD"/>
<circle cx="110.5" cy="93.5" r="2.5" fill="#DDDDDD"/>
<circle cx="110.5" cy="106.5" r="2.5" fill="#DDDDDD"/>
<circle cx="110.5" cy="119.5" r="2.5" fill="#DDDDDD"/>
<circle cx="110.5" cy="132.5" r="2.5" fill="#DDDDDD"/>
<circle cx="110.5" cy="145.5" r="2.5" fill="#DDDDDD"/>
<circle cx="110.5" cy="158.5" r="2.5" fill="#DDDDDD"/>
<circle cx="110.5" cy="171.5" r="2.5" fill="#DDDDDD"/>
<circle cx="110.5" cy="184.5" r="2.5" fill="#DDDDDD"/>
<circle cx="110.5" cy="197.5" r="2.5" fill="#DDDDDD"/>
<circle cx="110.5" cy="210.5" r="2.5" fill="#DDDDDD"/>
<circle cx="119.5" cy="2.5" r="2.5" fill="#DDDDDD"/>
<circle cx="119.5" cy="15.5" r="2.5" fill="#DDDDDD"/>
<circle cx="119.5" cy="28.5" r="2.5" fill="#DDDDDD"/>
<circle cx="119.5" cy="41.5" r="2.5" fill="#DDDDDD"/>
<circle cx="119.5" cy="54.5" r="2.5" fill="#DDDDDD"/>
<circle cx="119.5" cy="67.5" r="2.5" fill="#DDDDDD"/>
<circle cx="119.5" cy="80.5" r="2.5" fill="#DDDDDD"/>
<circle cx="119.5" cy="93.5" r="2.5" fill="#DDDDDD"/>
<circle cx="119.5" cy="106.5" r="2.5" fill="#DDDDDD"/>
<circle cx="119.5" cy="119.5" r="2.5" fill="#DDDDDD"/>
<circle cx="119.5" cy="132.5" r="2.5" fill="#DDDDDD"/>
<circle cx="119.5" cy="145.5" r="2.5" fill="#DDDDDD"/>
<circle cx="119.5" cy="158.5" r="2.5" fill="#DDDDDD"/>
<circle cx="119.5" cy="171.5" r="2.5" fill="#DDDDDD"/>
<circle cx="119.5" cy="184.5" r="2.5" fill="#DDDDDD"/>
<circle cx="119.5" cy="197.5" r="2.5" fill="#DDDDDD"/>
<circle cx="119.5" cy="210.5" r="2.5" fill="#DDDDDD"/>
<circle cx="128.5" cy="2.5" r="2.5" fill="#DDDDDD"/>
<circle cx="128.5" cy="15.5" r="2.5" fill="#DDDDDD"/>
<circle cx="128.5" cy="28.5" r="2.5" fill="#DDDDDD"/>
<circle cx="128.5" cy="41.5" r="2.5" fill="#DDDDDD"/>
<circle cx="128.5" cy="54.5" r="2.5" fill="#DDDDDD"/>
<circle cx="128.5" cy="67.5" r="2.5" fill="#DDDDDD"/>
<circle cx="128.5" cy="80.5" r="2.5" fill="#DDDDDD"/>
<circle cx="128.5" cy="93.5" r="2.5" fill="#DDDDDD"/>
<circle cx="128.5" cy="106.5" r="2.5" fill="#DDDDDD"/>
<circle cx="128.5" cy="119.5" r="2.5" fill="#DDDDDD"/>
<circle cx="128.5" cy="132.5" r="2.5" fill="#DDDDDD"/>
<circle cx="128.5" cy="145.5" r="2.5" fill="#DDDDDD"/>
<circle cx="128.5" cy="158.5" r="2.5" fill="#DDDDDD"/>
<circle cx="128.5" cy="171.5" r="2.5" fill="#DDDDDD"/>
<circle cx="128.5" cy="184.5" r="2.5" fill="#DDDDDD"/>
<circle cx="128.5" cy="197.5" r="2.5" fill="#DDDDDD"/>
<circle cx="128.5" cy="210.5" r="2.5" fill="#DDDDDD"/>
<circle cx="137.5" cy="2.5" r="2.5" fill="#DDDDDD"/>
<circle cx="137.5" cy="15.5" r="2.5" fill="#DDDDDD"/>
<circle cx="137.5" cy="28.5" r="2.5" fill="#DDDDDD"/>
<circle cx="137.5" cy="41.5" r="2.5" fill="#DDDDDD"/>
<circle cx="137.5" cy="54.5" r="2.5" fill="#DDDDDD"/>
<circle cx="137.5" cy="67.5" r="2.5" fill="#DDDDDD"/>
<circle cx="137.5" cy="80.5" r="2.5" fill="#DDDDDD"/>
<circle cx="137.5" cy="93.5" r="2.5" fill="#DDDDDD"/>
<circle cx="137.5" cy="106.5" r="2.5" fill="#DDDDDD"/>
<circle cx="137.5" cy="119.5" r="2.5" fill="#DDDDDD"/>
<circle cx="137.5" cy="132.5" r="2.5" fill="#DDDDDD"/>
<circle cx="137.5" cy="145.5" r="2.5" fill="#DDDDDD"/>
<circle cx="137.5" cy="158.5" r="2.5" fill="#DDDDDD"/>
<circle cx="137.5" cy="171.5" r="2.5" fill="#DDDDDD"/>
<circle cx="137.5" cy="184.5" r="2.5" fill="#DDDDDD"/>
<circle cx="137.5" cy="197.5" r="2.5" fill="#DDDDDD"/>
<circle cx="137.5" cy="210.5" r="2.5" fill="#DDDDDD"/>
<circle cx="146.5" cy="2.5" r="2.5" fill="#DDDDDD"/>
<circle cx="146.5" cy="15.5" r="2.5" fill="#DDDDDD"/>
<circle cx="146.5" cy="28.5" r="2.5" fill="#DDDDDD"/>
<circle cx="146.5" cy="41.5" r="2.5" fill="#DDDDDD"/>
<circle cx="146.5" cy="54.5" r="2.5" fill="#DDDDDD"/>
<circle cx="146.5" cy="67.5" r="2.5" fill="#DDDDDD"/>
<circle cx="146.5" cy="80.5" r="2.5" fill="#DDDDDD"/>
<circle cx="146.5" cy="93.5" r="2.5" fill="#DDDDDD"/>
<circle cx="146.5" cy="106.5" r="2.5" fill="#DDDDDD"/>
<circle cx="146.5" cy="119.5" r="2.5" fill="#DDDDDD"/>
<circle cx="146.5" cy="132.5" r="2.5" fill="#DDDDDD"/>
<circle cx="146.5" cy="145.5" r="2.5" fill="#DDDDDD"/>
<circle cx="146.5" cy="158.5" r="2.5" fill="#DDDDDD"/>
<circle cx="146.5" cy="171.5" r="2.5" fill="#DDDDDD"/>
<circle cx="146.5" cy="184.5" r="2.5" fill="#DDDDDD"/>
<circle cx="146.5" cy="197.5" r="2.5" fill="#DDDDDD"/>
<circle cx="146.5" cy="210.5" r="2.5" fill="#DDDDDD"/>
<circle cx="155.5" cy="2.5" r="2.5" fill="#DDDDDD"/>
<circle cx="155.5" cy="15.5" r="2.5" fill="#DDDDDD"/>
<circle cx="155.5" cy="28.5" r="2.5" fill="#DDDDDD"/>
<circle cx="155.5" cy="41.5" r="2.5" fill="#DDDDDD"/>
<circle cx="155.5" cy="54.5" r="2.5" fill="#DDDDDD"/>
<circle cx="155.5" cy="67.5" r="2.5" fill="#DDDDDD"/>
<circle cx="155.5" cy="80.5" r="2.5" fill="#DDDDDD"/>
<circle cx="155.5" cy="93.5" r="2.5" fill="#DDDDDD"/>
<circle cx="155.5" cy="106.5" r="2.5" fill="#DDDDDD"/>
<circle cx="155.5" cy="119.5" r="2.5" fill="#DDDDDD"/>
<circle cx="155.5" cy="132.5" r="2.5" fill="#DDDDDD"/>
<circle cx="155.5" cy="145.5" r="2.5" fill="#DDDDDD"/>
<circle cx="155.5" cy="158.5" r="2.5" fill="#DDDDDD"/>
<circle cx="155.5" cy="171.5" r="2.5" fill="#DDDDDD"/>
<circle cx="155.5" cy="184.5" r="2.5" fill="#DDDDDD"/>
<circle cx="155.5" cy="197.5" r="2.5" fill="#DDDDDD"/>
<circle cx="155.5" cy="210.5" r="2.5" fill="#DDDDDD"/>
<circle cx="164.5" cy="2.5" r="2.5" fill="#DDDDDD"/>
<circle cx="164.5" cy="15.5" r="2.5" fill="#DDDDDD"/>
<circle cx="164.5" cy="28.5" r="2.5" fill="#DDDDDD"/>
<circle cx="164.5" cy="41.5" r="2.5" fill="#DDDDDD"/>
<circle cx="164.5" cy="54.5" r="2.5" fill="#DDDDDD"/>
<circle cx="164.5" cy="67.5" r="2.5" fill="#DDDDDD"/>
<circle cx="164.5" cy="80.5" r="2.5" fill="#DDDDDD"/>
<circle cx="164.5" cy="93.5" r="2.5" fill="#DDDDDD"/>
<circle cx="164.5" cy="106.5" r="2.5" fill="#DDDDDD"/>
<circle cx="164.5" cy="119.5" r="2.5" fill="#DDDDDD"/>
<circle cx="164.5" cy="132.5" r="2.5" fill="#DDDDDD"/>
<circle cx="164.5" cy="145.5" r="2.5" fill="#DDDDDD"/>
<circle cx="164.5" cy="158.5" r="2.5" fill="#DDDDDD"/>
<circle cx="164.5" cy="171.5" r="2.5" fill="#DDDDDD"/>
<circle cx="164.5" cy="184.5" r="2.5" fill="#DDDDDD"/>
<circle cx="164.5" cy="197.5" r="2.5" fill="#DDDDDD"/>
<circle cx="164.5" cy="210.5" r="2.5" fill="#DDDDDD"/>
<circle cx="173.5" cy="2.5" r="2.5" fill="#DDDDDD"/>
<circle cx="173.5" cy="15.5" r="2.5" fill="#DDDDDD"/>
<circle cx="173.5" cy="28.5" r="2.5" fill="#DDDDDD"/>
<circle cx="173.5" cy="41.5" r="2.5" fill="#DDDDDD"/>
<circle cx="173.5" cy="54.5" r="2.5" fill="#DDDDDD"/>
<circle cx="173.5" cy="67.5" r="2.5" fill="#DDDDDD"/>
<circle cx="173.5" cy="80.5" r="2.5" fill="#DDDDDD"/>
<circle cx="173.5" cy="93.5" r="2.5" fill="#DDDDDD"/>
<circle cx="173.5" cy="106.5" r="2.5" fill="#DDDDDD"/>
<circle cx="173.5" cy="119.5" r="2.5" fill="#DDDDDD"/>
<circle cx="173.5" cy="132.5" r="2.5" fill="#DDDDDD"/>
<circle cx="173.5" cy="145.5" r="2.5" fill="#DDDDDD"/>
<circle cx="173.5" cy="158.5" r="2.5" fill="#DDDDDD"/>
<circle cx="173.5" cy="171.5" r="2.5" fill="#DDDDDD"/>
<circle cx="173.5" cy="184.5" r="2.5" fill="#DDDDDD"/>
<circle cx="173.5" cy="197.5" r="2.5" fill="#DDDDDD"/>
<circle cx="173.5" cy="210.5" r="2.5" fill="#DDDDDD"/>
<circle cx="182.5" cy="2.5" r="2.5" fill="#DDDDDD"/>
<circle cx="182.5" cy="15.5" r="2.5" fill="#DDDDDD"/>
<circle cx="182.5" cy="28.5" r="2.5" fill="#DDDDDD"/>
<circle cx="182.5" cy="41.5" r="2.5" fill="#DDDDDD"/>
<circle cx="182.5" cy="54.5" r="2.5" fill="#DDDDDD"/>
<circle cx="182.5" cy="67.5" r="2.5" fill="#DDDDDD"/>
<circle cx="182.5" cy="80.5" r="2.5" fill="#DDDDDD"/>
<circle cx="182.5" cy="93.5" r="2.5" fill="#DDDDDD"/>
<circle cx="182.5" cy="106.5" r="2.5" fill="#DDDDDD"/>
<circle cx="182.5" cy="119.5" r="2.5" fill="#DDDDDD"/>
<circle cx="182.5" cy="132.5" r="2.5" fill="#DDDDDD"/>
<circle cx="182.5" cy="145.5" r="2.5" fill="#DDDDDD"/>
<circle cx="182.5" cy="158.5" r="2.5" fill="#DDDDDD"/>
<circle cx="182.5" cy="171.5" r="2.5" fill="#DDDDDD"/>
<circle cx="182.5" cy="184.5" r="2.5" fill="#DDDDDD"/>
<circle cx="182.5" cy="197.5" r="2.5" fill="#DDDDDD"/>
<circle cx="182.5" cy="210.5" r="2.5" fill="#DDDDDD"/>
<circle cx="191.5" cy="2.5" r="2.5" fill="#DDDDDD"/>
<circle cx="191.5" cy="15.5" r="2.5" fill="#DDDDDD"/>
<circle cx="191.5" cy="28.5" r="2.5" fill="#DDDDDD"/>
<circle cx="191.5" cy="41.5" r="2.5" fill="#DDDDDD"/>
<circle cx="191.5" cy="54.5" r="2.5" fill="#DDDDDD"/>
<circle cx="191.5" cy="67.5" r="2.5" fill="#DDDDDD"/>
<circle cx="191.5" cy="80.5" r="2.5" fill="#DDDDDD"/>
<circle cx="191.5" cy="93.5" r="2.5" fill="#DDDDDD"/>
<circle cx="191.5" cy="106.5" r="2.5" fill="#DDDDDD"/>
<circle cx="191.5" cy="119.5" r="2.5" fill="#DDDDDD"/>
<circle cx="191.5" cy="132.5" r="2.5" fill="#DDDDDD"/>
<circle cx="191.5" cy="145.5" r="2.5" fill="#DDDDDD"/>
<circle cx="191.5" cy="158.5" r="2.5" fill="#DDDDDD"/>
<circle cx="191.5" cy="171.5" r="2.5" fill="#DDDDDD"/>
<circle cx="191.5" cy="184.5" r="2.5" fill="#DDDDDD"/>
<circle cx="191.5" cy="197.5" r="2.5" fill="#DDDDDD"/>
<circle cx="191.5" cy="210.5" r="2.5" fill="#DDDDDD"/>
</svg>
