<svg width="104" height="66" viewBox="0 0 104 66" fill="none" xmlns="http://www.w3.org/2000/svg">
<circle cx="3" cy="3" r="3" fill="#C65E64"/>
<circle cx="3" cy="18" r="3" fill="#C65E64"/>
<circle cx="3" cy="33" r="3" fill="#C65E64"/>
<circle cx="3" cy="48" r="3" fill="#C65E64"/>
<circle cx="3" cy="63" r="3" fill="#C65E64"/>
<circle cx="17" cy="3" r="3" fill="#C65E64"/>
<circle cx="17" cy="18" r="3" fill="#C65E64"/>
<circle cx="17" cy="33" r="3" fill="#C65E64"/>
<circle cx="17" cy="48" r="3" fill="#C65E64"/>
<circle cx="17" cy="63" r="3" fill="#C65E64"/>
<circle cx="31" cy="3" r="3" fill="#C65E64"/>
<circle cx="31" cy="18" r="3" fill="#C65E64"/>
<circle cx="31" cy="33" r="3" fill="#C65E64"/>
<circle cx="31" cy="48" r="3" fill="#C65E64"/>
<circle cx="31" cy="63" r="3" fill="#C65E64"/>
<circle cx="45" cy="3" r="3" fill="#C65E64"/>
<circle cx="45" cy="18" r="3" fill="#C65E64"/>
<circle cx="45" cy="33" r="3" fill="#C65E64"/>
<circle cx="45" cy="48" r="3" fill="#C65E64"/>
<circle cx="45" cy="63" r="3" fill="#C65E64"/>
<circle cx="59" cy="3" r="3" fill="#C65E64"/>
<circle cx="59" cy="18" r="3" fill="#C65E64"/>
<circle cx="59" cy="33" r="3" fill="#C65E64"/>
<circle cx="59" cy="48" r="3" fill="#C65E64"/>
<circle cx="59" cy="63" r="3" fill="#C65E64"/>
<circle cx="73" cy="3" r="3" fill="#C65E64"/>
<circle cx="73" cy="18" r="3" fill="#C65E64"/>
<circle cx="73" cy="33" r="3" fill="#C65E64"/>
<circle cx="73" cy="48" r="3" fill="#C65E64"/>
<circle cx="73" cy="63" r="3" fill="#C65E64"/>
<circle cx="87" cy="3" r="3" fill="#C65E64"/>
<circle cx="87" cy="18" r="3" fill="#C65E64"/>
<circle cx="87" cy="33" r="3" fill="#C65E64"/>
<circle cx="87" cy="48" r="3" fill="#C65E64"/>
<circle cx="87" cy="63" r="3" fill="#C65E64"/>
<circle cx="101" cy="3" r="3" fill="#C65E64"/>
<circle cx="101" cy="18" r="3" fill="#C65E64"/>
<circle cx="101" cy="33" r="3" fill="#C65E64"/>
<circle cx="101" cy="48" r="3" fill="#C65E64"/>
<circle cx="101" cy="63" r="3" fill="#C65E64"/>
</svg>
